<?xml version="1.0" encoding="iso-8859-1"?>
<!-- Generator: Adobe Illustrator 19.0.0, SVG Export Plug-In . SVG Version: 6.00 Build 0)  -->
<svg xmlns="http://www.w3.org/2000/svg" xmlns:xlink="http://www.w3.org/1999/xlink" version="1.1" id="Layer_1" x="0px" y="0px" viewBox="0 0 511.999 511.999" style="enable-background:new 0 0 511.999 511.999;" xml:space="preserve" width="512px" height="512px">
<g>
	<g>
		<path d="M510.371,184.585l-65.34-113.17l-37.722,21.78l-5.902,3.408c-11.192-10.223-23.448-19.244-36.675-26.986    c-13.83-8.095-28.338-14.557-43.394-19.345v-6.712V0H190.66v43.559v6.712c-15.057,4.787-29.561,11.25-43.392,19.345    c-13.227,7.742-25.484,16.764-36.675,26.986l-5.902-3.408l-37.724-21.78L1.628,184.583l37.724,21.78l5.814,3.357    c-3.316,15.103-4.988,30.574-4.988,46.279c0,15.705,1.671,31.175,4.988,46.279l-5.814,3.357l-37.724,21.78l65.339,113.17    l37.724-21.78l5.902-3.408c11.192,10.223,23.449,19.244,36.677,26.986c13.83,8.095,28.338,14.557,43.392,19.345v6.712v43.559    h126.385c-24.28-24.874-39.267-58.859-39.267-96.282c0-13.699,2.017-26.934,5.753-39.434c-8.86,2.027-18.065,3.135-27.532,3.135    c-68.052,0-123.418-55.365-123.418-123.418S187.948,132.582,256,132.582S379.418,187.948,379.418,256    c0,9.467-1.108,18.672-3.133,27.532c12.499-3.736,25.735-5.753,39.433-5.753c19.012,0,37.138,3.867,53.633,10.855    c1.633-10.734,2.473-21.624,2.473-32.635c0-15.704-1.671-31.175-4.988-46.28l5.812-3.356L510.371,184.585z" fill="#FFFFFF"/>
	</g>
</g>
<g>
	<g>
		<path d="M256,176.142c-44.034,0-79.858,35.825-79.858,79.858s35.823,79.858,79.858,79.858c44.034,0,79.858-35.825,79.858-79.858    S300.034,176.142,256,176.142z" fill="#FFFFFF"/>
	</g>
</g>
<g>
	<g>
		<path d="M415.717,321.339c-52.04,0-94.378,42.338-94.378,94.378c0,52.04,42.338,94.378,94.378,94.378    c52.04,0,94.378-42.338,94.378-94.378C510.095,363.677,467.756,321.339,415.717,321.339z M405.553,469.749l-44.439-44.439    l30.801-30.801l13.64,13.638l42.679-42.678l30.801,30.801L405.553,469.749z" fill="#FFFFFF"/>
	</g>
</g>
<g>
</g>
<g>
</g>
<g>
</g>
<g>
</g>
<g>
</g>
<g>
</g>
<g>
</g>
<g>
</g>
<g>
</g>
<g>
</g>
<g>
</g>
<g>
</g>
<g>
</g>
<g>
</g>
<g>
</g>
</svg>
