<?xml version="1.0" standalone="no"?>
<!DOCTYPE svg PUBLIC "-//W3C//DTD SVG 20010904//EN"
 "http://www.w3.org/TR/2001/REC-SVG-20010904/DTD/svg10.dtd">
<svg version="1.0" xmlns="http://www.w3.org/2000/svg"
 width="860.000000pt" height="980.000000pt" viewBox="0 0 860.000000 980.000000"
 preserveAspectRatio="xMidYMid meet">

<g transform="translate(0.000000,980.000000) scale(0.100000,-0.100000)"
fill="#ffffff" stroke="none">
<path d="M3060 9793 c-1135 -49 -2056 -209 -2600 -452 -211 -94 -373 -218
-426 -327 -23 -46 -26 -64 -21 -112 14 -155 134 -275 411 -408 507 -243 1431
-412 2546 -464 270 -13 940 -13 1205 0 1601 77 2721 371 2941 774 118 214
-141 455 -683 636 -565 188 -1328 305 -2278 350 -185 9 -918 11 -1095 3z"/>
<path d="M3 7498 c5 -761 5 -762 66 -852 234 -339 1204 -602 2596 -701 1353
-97 2864 33 3749 322 291 95 486 194 622 316 72 65 92 118 104 269 10 126 14
1338 5 1338 -3 0 -59 -27 -125 -60 -354 -177 -829 -312 -1465 -415 -1355 -220
-2949 -201 -4250 51 -494 95 -834 201 -1209 378 l-98 46 5 -692z"/>
<path d="M3 5353 c5 -710 8 -756 48 -834 56 -111 322 -272 617 -373 512 -176
1191 -290 2102 -353 326 -22 1399 -25 1728 -4 216 13 225 15 255 40 18 14 79
66 136 115 297 253 585 421 914 535 142 49 332 96 447 111 128 17 605 24 755
12 71 -6 130 -10 131 -9 1 1 6 327 10 725 5 547 4 722 -5 722 -6 0 -52 -20
-102 -45 -455 -229 -1164 -404 -2004 -494 -283 -31 -275 -30 -492 -46 -916
-65 -1910 -35 -2753 86 -679 97 -1305 266 -1677 453 -51 25 -98 46 -104 46 -8
0 -10 -185 -6 -687z"/>
<path d="M6435 3923 c-55 -14 -106 -93 -161 -247 -51 -141 -138 -308 -180
-346 -31 -26 -40 -30 -72 -24 -83 15 -205 60 -345 126 -233 111 -260 107 -433
-66 -190 -191 -194 -207 -87 -432 81 -169 122 -284 130 -359 5 -50 5 -52 -37
-88 -54 -46 -186 -114 -315 -162 -133 -50 -183 -76 -225 -119 -33 -35 -34 -39
-40 -139 -3 -56 -3 -150 0 -209 5 -102 6 -108 35 -138 36 -39 113 -78 220
-114 110 -38 275 -121 326 -164 41 -35 41 -37 36 -86 -8 -77 -51 -195 -130
-361 -106 -224 -103 -241 77 -421 183 -183 209 -188 426 -85 162 78 308 130
369 133 33 1 47 -4 70 -26 38 -36 129 -215 176 -345 45 -123 102 -212 149
-235 46 -21 359 -23 409 -2 60 25 114 107 157 241 29 93 122 281 160 328 28
32 37 37 75 37 66 0 193 -43 359 -123 179 -85 230 -94 298 -54 64 38 255 238
280 293 28 65 20 101 -58 262 -70 144 -120 282 -130 356 -6 43 -5 48 29 80 46
43 208 126 345 177 125 46 204 95 229 141 19 37 31 255 19 352 -13 102 -74
155 -247 215 -170 60 -333 147 -365 196 -15 23 -16 33 -4 83 21 96 49 171 121
323 82 173 91 216 59 280 -28 56 -242 269 -294 293 -61 28 -113 18 -257 -52
-149 -72 -227 -102 -327 -127 -67 -16 -74 -16 -98 -1 -48 32 -129 181 -195
357 -43 118 -87 197 -128 227 -34 27 -36 27 -220 29 -102 1 -195 -1 -206 -4z
m479 -1007 c329 -98 590 -366 678 -696 32 -124 32 -349 0 -470 -110 -403 -446
-691 -850 -729 -290 -27 -572 77 -778 285 -380 384 -374 986 13 1367 115 113
236 187 387 237 101 33 155 39 316 35 121 -2 160 -7 234 -29z"/>
<path d="M3 3153 c5 -709 8 -756 47 -834 41 -80 180 -182 374 -274 470 -224
1266 -381 2281 -450 240 -16 1293 -42 1318 -32 13 5 14 12 7 39 -18 60 -33
351 -26 503 14 347 87 652 231 967 36 79 65 145 65 148 0 3 -210 4 -467 2
-1005 -9 -1801 55 -2557 204 -468 92 -817 201 -1149 358 -65 31 -121 56 -124
56 -3 0 -3 -309 0 -687z"/>
</g>
</svg>
