<?xml version="1.0"?>
<svg xmlns="http://www.w3.org/2000/svg" height="512px" viewBox="0 0 458.85802 458" width="512px"><path d="m332.625 446.933594 4.421875 2.910156 4.230469-2.855469-4.328125-36.972656zm0 0" fill="#FFFFFF"/><path d="m318.21875 449.589844 2.484375-21.207032-24.371094-73.261718h-7.8125c-17.113281.019531-30.984375 13.890625-31 31v44.5c18.886719 15.453125 41.941407 24.933594 66.238281 27.238281l-2.4375-1.601563c-2.214843-1.457031-3.414062-4.035156-3.101562-6.667968zm0 0" fill="#FFFFFF"/><path d="m333.679688 365.09375h5.683593l2.480469-7.277344-10.644531-.035156zm0 0" fill="#FFFFFF"/><path d="m198.335938 329.039062c-63.089844-5.757812-110.808594-59.613281-108.921876-122.9375 1.882813-63.324218 52.714844-114.246093 116.035157-116.246093 63.320312-1.996094 117.261719 45.625 123.128906 108.707031 2.300781-.117188 4.613281-.171875 6.9375-.175781 29.710937-.035157 58.628906 9.605469 82.378906 27.457031v-41.519531l-40.65625-3.917969c-3.03125-.292969-5.527343-2.511719-6.167969-5.488281-4.273437-19.730469-12.183593-38.496094-23.324218-55.332031-1.714844-2.574219-1.539063-5.96875.433594-8.351563l25.964843-31.347656-35.203125-35.648438-31.285156 25.90625c-2.351562 1.945313-5.691406 2.144531-8.257812.488281-16.914063-11.070312-35.6875-18.992187-55.421876-23.378906-2.976562-.644531-5.195312-3.140625-5.488281-6.171875l-3.917969-40.652343h-50.683593l-3.917969 40.652343c-.292969 3.03125-2.511719 5.527344-5.488281 6.171875-19.730469 4.273438-38.496094 12.179688-55.332031 23.320313-2.574219 1.71875-5.96875 1.542969-8.347657-.429688l-31.320312-25.933593-35.699219 35.703124 25.929688 31.320313c1.949218 2.351563 2.148437 5.695313.492187 8.257813-11.074219 16.914062-18.992187 35.691406-23.378906 55.421874-.644531 2.980469-3.136719 5.199219-6.171875 5.488282l-40.652344 3.917968v50.683594l40.652344 3.921875c3.035156.289063 5.527344 2.507813 6.171875 5.484375 4.273437 19.734375 12.179687 38.496094 23.320312 55.332032 1.714844 2.574218 1.539063 5.96875-.433593 8.351562l-25.9375 31.320312 35.707031 35.707032 31.320312-25.9375c2.351563-1.949219 5.691407-2.144532 8.257813-.492188 16.914062 11.074219 35.691406 18.996094 55.421875 23.382813 2.976562.644531 5.195312 3.136719 5.488281 6.167969l3.917969 40.65625h42.824219c-18.519532-23.894532-28.554688-53.269532-28.527344-83.496094 0-2.132813.054687-4.257813.152344-6.363282zm0 0" fill="#FFFFFF"/><path d="m209.230469 103.796875c-56.617188-.003906-103.214844 44.539063-105.769531 101.097656-2.550782 56.558594 39.84375 105.117188 96.230468 110.214844 9.066406-59.371094 55.609375-105.988281 114.964844-115.144531-4.769531-54.601563-50.617188-96.421875-105.425781-96.167969zm0 0" fill="#FFFFFF"/><path d="m335.519531 212.386719c-68.007812 0-123.335937 55.183593-123.335937 123.015625-.019532 30.210937 11.144531 59.359375 31.335937 81.832031v-31.109375c.027344-24.84375 20.15625-44.972656 45-45h12.863281c3.015626 0 5.691407 1.929688 6.640626 4.789062l16.523437 49.667969 1.972656-16.828125c-2.109375-.679687-3.769531-2.3125-4.480469-4.410156l-7.25-21.347656c-.722656-2.136719-.375-4.496094.941407-6.332032 1.316406-1.832031 3.433593-2.921874 5.695312-2.921874h.023438l30.199219.109374c2.253906.007813 4.367187 1.101563 5.675781 2.9375 1.308593 1.835938 1.652343 4.1875.921875 6.324219l-7.246094 21.238281c-.613281 1.792969-1.933594 3.257813-3.648438 4.0625l1.964844 16.800782 16.125-49.269532c.941406-2.878906 3.628906-4.824218 6.652344-4.824218h10.429688c24.839843.027344 44.972656 20.160156 45 45v31.113281c20.191406-22.472656 31.351562-51.625 31.335937-81.835937-.007813-67.828126-55.335937-123.011719-123.339844-123.011719zm43.230469 80.886719c.074219 15.496093-8.148438 29.847656-21.554688 37.617187s-29.949218 7.769531-43.355468 0-21.628906-22.121094-21.554688-37.617187v-14.492188c.113282-23.796875 19.4375-43.027344 43.230469-43.027344 23.796875 0 43.121094 19.230469 43.234375 43.027344zm0 0" fill="#FFFFFF"/><path d="m335.519531 249.542969c-16.140625.019531-29.21875 13.097656-29.234375 29.234375v14.492187c-.0625 10.484375 5.496094 20.199219 14.566406 25.460938 9.070313 5.257812 20.261719 5.257812 29.332032 0 9.070312-5.261719 14.628906-14.976563 14.566406-25.460938v-14.488281c-.015625-16.140625-13.09375-29.21875-29.230469-29.238281zm0 0" fill="#FFFFFF"/><path d="m382.519531 355.121094h-5.351562l-23.976563 73.230468 2.488282 21.238282c.304687 2.597656-.867188 5.152344-3.035157 6.617187l-1.882812 1.269531c23.035156-2.851562 44.789062-12.164062 62.753906-26.859374v-44.496094c-.015625-17.109375-13.886719-30.980469-30.996094-31zm0 0" fill="#FFFFFF"/></svg>
